<?xml version="1.0" encoding="UTF-8"?>
<svg width="1200px" height="800px" viewBox="0 0 1200 800" version="1.1" xmlns="http://www.w3.org/2000/svg">
    <g fill="#2B7A3E" fill-opacity="0.5" stroke="#2B7A3E" stroke-width="3" opacity="0.8">
        <!-- Main US map outlines -->
        <path d="M213,185 L229,179 L228,175 L222,174 L219,168 L210,169 L208,173 L203,171 L195,173 L191,169 L183,169 L180,174 L175,177 L171,182 L172,185 L178,187 L180,192 L184,194 L190,194 L195,191 L200,191 L205,189 L212,190 L213,185 Z" />
        <path d="M158,186 L162,184 L165,177 L168,171 L175,165 L183,159 L186,156 L189,149 L190,135 L196,124 L197,118 L194,112 L188,107 L182,105 L174,106 L166,111 L163,117 L157,121 L155,128 L154,135 L149,142 L144,143 L140,147 L136,152 L133,155 L129,155 L128,158 L128,165 L130,170 L135,173 L143,177 L150,179 L156,183 L158,186 Z" />
        <path d="M230,161 L236,159 L242,155 L246,150 L250,144 L256,142 L263,143 L270,140 L278,142 L287,142 L295,140 L302,138 L308,135 L312,131 L317,129 L324,129 L329,126 L335,124 L341,120 L347,118 L352,119 L356,122 L360,121 L364,118 L368,119 L374,120 L380,119 L387,117 L392,115 L396,110 L401,109 L407,108 L411,113 L414,115 L420,116 L427,115 L433,114 L438,115 L443,118 L450,118 L454,120 L458,124 L462,129 L467,132 L471,134 L475,137 L479,142 L484,145 L489,146 L495,144 L500,140 L507,139 L513,140 L518,142 L521,146 L525,151 L528,155 L535,157 L542,158 L548,157 L554,155 L560,157 L565,161 L569,165 L575,168 L580,169 L586,170 L592,173 L594,177 L593,182 L590,187 L585,191 L581,194 L575,195 L569,193 L566,189 L562,186 L558,184 L552,183 L546,184 L542,187 L538,191 L533,194 L527,196 L522,195 L518,192 L513,190 L508,191 L502,194 L496,197 L490,200 L483,202 L476,203 L470,201 L465,198 L459,196 L454,193 L448,190 L443,186 L438,183 L433,181 L427,180 L422,181 L416,183 L410,185 L405,188 L399,190 L394,192 L388,193 L383,191 L377,189 L372,186 L367,182 L361,179 L355,178 L349,177 L343,178 L337,180 L331,182 L325,184 L320,187 L314,189 L308,191 L302,190 L298,186 L294,181 L289,177 L283,175 L277,176 L270,178 L264,180 L258,182 L252,183 L246,183 L240,179 L236,175 L232,170 L230,164 L230,161 Z" />
        <path d="M567,172 L570,170 L572,165 L576,163 L581,162 L586,163 L588,167 L591,171 L594,174 L598,176 L603,177 L608,175 L613,173 L617,169 L622,167 L628,166 L633,168 L637,170 L640,174 L645,177 L649,181 L655,182 L661,182 L666,180 L671,178 L675,174 L679,171 L683,168 L688,166 L693,166 L697,169 L701,173 L704,177 L707,180 L712,181 L717,180 L722,177 L726,174 L730,170 L734,167 L738,165 L743,169 L746,174 L749,178 L753,182 L758,184 L762,181 L765,177 L769,173 L772,168 L776,167 L780,169 L783,174 L784,179 L787,182 L790,180 L789,175 L787,170 L784,166 L779,162 L774,158 L770,155 L764,153 L759,155 L754,158 L749,160 L743,159 L739,155 L734,152 L729,151 L723,150 L718,152 L713,154 L708,157 L703,160 L698,162 L693,159 L688,156 L683,154 L677,156 L671,158 L667,161 L662,164 L658,167 L653,169 L648,169 L643,166 L638,164 L634,161 L628,159 L623,159 L619,161 L613,165 L608,167 L603,169 L599,172 L594,168 L590,165 L586,163 L581,162 L577,162 L572,164 L568,168 L567,172 Z" />
        <path d="M164,339 L171,337 L174,333 L178,329 L183,325 L188,323 L194,322 L199,324 L205,326 L211,327 L216,325 L221,321 L226,317 L232,314 L237,316 L242,319 L247,321 L254,321 L260,319 L266,317 L273,316 L278,314 L284,312 L289,309 L294,307 L300,306 L306,307 L311,310 L317,313 L322,317 L328,319 L334,317 L340,313 L345,311 L350,309 L356,307 L361,305 L367,304 L372,306 L378,307 L384,308 L390,307 L395,305 L400,302 L405,299 L410,297 L415,297 L421,298 L426,300 L431,304 L437,306 L442,303 L447,299 L452,296 L458,295 L463,296 L468,299 L474,302 L480,303 L485,300 L490,296 L495,294 L501,294 L505,296 L510,300 L515,303 L520,306 L525,305 L530,302 L535,299 L540,298 L545,297 L550,294 L555,290 L560,286 L565,283 L570,282 L576,282 L579,284 L584,287 L589,290 L593,293 L598,295 L602,298 L607,301 L613,303 L618,306 L623,307 L628,308 L633,309 L638,310 L643,309 L648,307 L652,304 L656,301 L661,299 L666,298 L671,297 L676,296 L681,295 L686,294 L690,293 L695,291 L699,289 L703,285 L708,281 L713,279 L718,278 L723,280 L728,283 L733,285 L738,286 L742,283 L745,279 L748,274 L751,270 L755,268 L760,267 L764,269 L768,273 L773,276 L777,278 L782,280 L787,283 L791,285 L797,286 L801,284 L805,280 L808,275 L810,271 L809,266 L807,261 L804,257 L800,254 L793,251 L788,249 L783,248 L777,247 L772,248 L767,250 L762,253 L757,255 L753,252 L748,250 L744,248 L739,247 L735,249 L730,252 L725,252 L720,250 L715,248 L711,246 L707,249 L704,253 L701,257 L697,261 L693,259 L688,258 L684,256 L680,257 L676,260 L672,264 L667,266 L662,268 L656,269 L652,267 L647,265 L642,265 L637,268 L633,271 L629,274 L624,276 L619,278 L614,279 L609,280 L604,279 L599,276 L595,273 L591,271 L586,270 L581,271 L575,273 L571,277 L566,279 L561,280 L556,279 L551,278 L547,275 L542,273 L538,271 L533,272 L529,274 L524,276 L520,278 L515,280 L510,279 L505,277 L500,276 L496,277 L491,280 L486,282 L481,284 L477,286 L473,290 L468,291 L464,290 L459,289 L455,287 L451,285 L447,284 L443,286 L438,288 L435,291 L431,293 L427,290 L423,288 L419,286 L414,284 L410,284 L405,285 L401,287 L397,290 L393,293 L388,295 L383,297 L378,295 L374,292 L370,290 L366,292 L361,294 L357,297 L353,300 L349,297 L345,294 L341,292 L337,290 L333,288 L328,287 L324,288 L320,290 L315,292 L310,294 L305,295 L300,295 L296,295 L292,293 L288,291 L284,289 L280,286 L275,284 L271,283 L266,285 L261,287 L256,289 L250,291 L245,290 L240,289 L236,286 L233,283 L228,281 L224,280 L220,282 L216,285 L211,287 L206,288 L201,289 L196,287 L191,286 L187,284 L183,286 L179,289 L175,292 L171,295 L166,297 L161,297 L156,294 L152,291 L149,288 L145,291 L140,294 L138,298 L139,302 L143,304 L148,307 L152,310 L156,313 L160,316 L162,319 L161,323 L159,327 L158,331 L157,335 L160,338 L164,339 Z" />

        <!-- Additional US state outlines -->
        <path d="M257,213 L265,215 L275,214 L283,212 L292,209 L300,208 L309,210 L318,212 L325,214 L333,213 L340,209 L347,208 L355,209 L363,211 L370,214 L378,217 L384,220 L390,223 L397,225 L404,225 L411,224 L418,223 L425,225 L431,229 L437,232 L445,233 L452,232 L459,230 L466,228 L474,227 L481,228 L488,230 L495,233 L501,236 L508,238 L516,237 L524,235 L531,233 L538,230 L546,229 L553,230 L559,233 L565,237 L570,241 L575,245 L579,249 L585,252 L592,253 L599,252 L606,250 L612,247 L619,245 L626,247 L631,251 L636,255 L642,258 L649,260 L655,259 L661,257 L668,255 L674,252 L680,249 L687,248 L693,250 L700,252 L706,255 L712,257 L718,256 L723,253 L728,251 L733,249 L739,250 L745,252 L751,255 L756,258 L762,260 L768,261 L775,259 L781,257 L786,253 L791,249 L795,245 L800,242 L805,243 L810,246 L814,250 L818,254 L823,257 L829,256 L835,253 L841,251 L847,252 L852,254 L857,258 L861,262 L866,264 L872,265 L878,263 L883,261 L889,258 L894,256 L900,255 L905,257 L911,260 L916,263 L922,265 L928,266 L934,264 L940,262 L945,259 L951,256 L957,255 L963,258 L969,261 L974,264 L980,267 L986,269 L992,268 L998,266 L1003,264 L1009,261 L1015,259 L1020,261 L1025,264 L1031,267 L1037,269 L1042,270 L1048,268 L1053,266 L1059,263 L1064,260 L1069,258 L1075,257 L1080,259 L1086,262 L1091,265 L1097,267 L1102,266 L1108,264 L1113,262 L1118,260 L1123,259 L1128,261 L1134,263 L1139,266 L1145,268 L1150,270 L1155,272 L1160,270 L1165,268 L1170,265 L1175,262 L1180,261 L1185,263 L1190,266 L1195,268 L1200,270 L1195,275 L1190,279 L1184,282 L1180,286 L1175,290 L1170,293 L1165,296 L1160,300 L1155,304 L1150,307 L1145,310 L1140,312 L1135,315 L1130,318 L1125,322 L1120,325 L1115,328 L1110,330 L1105,333 L1100,336 L1095,339 L1090,342 L1085,345 L1080,348 L1075,351 L1070,354 L1065,356 L1060,359 L1055,362 L1050,365 L1045,368 L1040,371 L1035,374 L1030,376 L1025,379 L1020,382 L1015,385 L1010,388 L1005,391 L1000,394 L995,396 L990,399 L985,402 L980,405 L975,408 L970,411 L965,413 L960,416 L955,419 L950,422 L945,425 L940,428 L935,430 L930,433 L925,436 L920,439 L915,442 L910,444 L905,447 L900,450 L895,453 L890,456 L885,458 L880,461 L875,464 L870,467 L865,470 L860,472 L855,475 L850,478 L845,481 L840,484 L835,486 L830,489 L825,492 L820,495 L815,498 L810,500 L805,503 L800,506 L795,509 L790,512 L785,514 L780,517 L775,520 L770,523 L765,526 L760,528 L755,531 L750,534 L745,537 L740,540 L735,542 L730,545 L725,548 L720,551 L715,554 L710,556 L705,559 L700,562 L695,565 L690,568 L685,570 L680,573 L675,576 L670,579 L665,582 L660,584 L655,587 L650,590 L645,593 L640,596 L635,598 L630,601 L625,604 L620,607 L615,610 L610,612 L605,615 L600,618 L595,621 L590,624 L585,626 L580,629 L575,632 L570,635 L565,638 L560,640 L555,643 L550,646 L545,649 L540,652 L535,654 L530,657 L525,660 L520,663 L515,666 L510,668 L505,671 L500,674 L495,677 L490,680 L485,682 L480,685 L475,688 L470,691 L465,694 L460,696 L455,699 L450,702 L445,705 L440,708 L435,710 L430,713 L425,716 L420,719 L415,722 L410,724 L405,727 L400,730 L395,733 L390,736 L385,738 L380,741 L375,744 L370,747 L365,750 L360,752 L355,755 L350,758 L345,761 L340,764 L335,766 L330,769 L325,772 L320,775 L315,778 L310,780 L305,783 L300,786 L295,789 L290,792 L285,794 L280,797 L275,800 L270,780 L265,760 L260,740 L255,720 L250,700 L240,680 L230,660 L225,640 L220,620 L215,600 L210,580 L205,560 L200,540 L195,520 L190,500 L185,480 L180,460 L175,440 L170,420 L165,400 L160,380 L155,360 L150,340 L145,320 L140,300 L145,280 L150,260 L160,240 L170,220 L180,200 L195,190 L210,200 L225,210 L240,215 L257,213 Z" />

        <!-- Highway line across map -->
        <path d="M150,350 C200,345 250,340 300,345 C350,350 400,360 450,355 C500,350 550,340 600,345 C650,350 700,360 750,355 C800,350 850,340 900,345 C950,350 1000,360 1050,355" fill="none" stroke="#2B7A3E" stroke-width="6" stroke-dasharray="15,8" />

        <!-- Add dotted route lines crisscrossing the country -->
        <path d="M200,200 L600,600" fill="none" stroke="#2B7A3E" stroke-width="2" stroke-dasharray="5,5" />
        <path d="M300,600 L900,200" fill="none" stroke="#2B7A3E" stroke-width="2" stroke-dasharray="5,5" />
        <path d="M200,400 L800,400" fill="none" stroke="#2B7A3E" stroke-width="2" stroke-dasharray="5,5" />
        <path d="M500,200 L500,600" fill="none" stroke="#2B7A3E" stroke-width="2" stroke-dasharray="5,5" />
        
        <!-- Add location dots representing major cities -->
        <circle cx="250" cy="250" r="8" fill="#2B7A3E" />
        <circle cx="450" cy="300" r="8" fill="#2B7A3E" />
        <circle cx="650" cy="350" r="8" fill="#2B7A3E" />
        <circle cx="400" cy="480" r="8" fill="#2B7A3E" />
        <circle cx="750" cy="280" r="8" fill="#2B7A3E" />
        <circle cx="550" cy="220" r="8" fill="#2B7A3E" />
        <circle cx="340" cy="380" r="8" fill="#2B7A3E" />
        <circle cx="850" cy="400" r="8" fill="#2B7A3E" />
        <circle cx="600" cy="500" r="8" fill="#2B7A3E" />
    </g>
</svg> 